<svg width="1920" height="1080" viewBox="0 0 1920 1080" fill="none" xmlns="http://www.w3.org/2000/svg">
<path fill-rule="evenodd" clip-rule="evenodd" d="M1604.24 2496.92C1426.84 2605.1 1212.03 2616.16 1013.87 2649.3C817.998 2682.05 625.822 2700.03 440.518 2691.53C247.682 2682.69 12.2221 2704.41 -99.5642 2598.23C-217.133 2486.56 -90.0029 2264.44 -157.793 2123.24C-218.635 1996.51 -425.949 1958.36 -470.962 1824.63C-516.513 1689.3 -455.919 1524.28 -411.779 1368.68C-365.269 1204.71 -368.433 1012.16 -203.356 881.23C-24.3676 739.268 240.692 771.895 456.354 680.129C620.211 610.407 748.753 487.517 908.343 408.195C1087.73 319.031 1268.5 215.8 1458.66 181.944C1654.09 147.15 1839.8 170.157 2005.67 212.826C2174.09 256.154 2316.36 333.68 2431.47 432.2C2547.54 531.551 2681.95 637.527 2681.48 791.274C2680.99 949.203 2466.04 1111.8 2428.89 1275.32C2393.39 1431.52 2559.79 1558.34 2472.07 1712.85C2385.73 1864.92 2129.86 1926.23 1985.08 2057.03C1834.33 2193.23 1784.19 2387.17 1604.24 2496.92Z" fill="#B7FE81"/>
</svg>
