<svg width="682" height="651" viewBox="0 0 682 651" fill="none" xmlns="http://www.w3.org/2000/svg">
<path fill-rule="evenodd" clip-rule="evenodd" d="M221.579 123.299C173.682 144.573 116.082 154.754 87.0325 195.558C58.1112 236.183 65.6107 287.506 71.0814 334.699C76.1679 378.577 97.7351 415.879 117.205 455.844C144.351 511.562 144.398 592.611 207.179 614.053C268.859 635.118 329.246 573.569 391.33 549.466C450.925 526.329 522.048 521.922 563.039 475.894C605.568 428.139 623.831 361.824 610.829 302.996C598.615 247.736 537.231 218.871 496.938 176.837C459.068 137.33 439.068 75.5274 382.175 64.4658C325.44 53.4348 274.832 99.6456 221.579 123.299Z" fill="#5EDB00"/>
<path d="M454.255 206.713V404.668L322.628 432.675L191 404.668V206.713C191 202.455 194.455 199 198.713 199H446.543C450.8 199 454.255 202.455 454.255 206.713Z" fill="#EDF5FF"/>
<path d="M454.254 206.713V404.668L322.627 432.675V199H446.542C450.799 199 454.254 202.455 454.254 206.713Z" fill="#D5E8FE"/>
<path d="M454.255 404.668H191V445.287C191 449.547 194.453 453 198.713 453H446.543C450.802 453 454.255 449.547 454.255 445.287V404.668Z" fill="#5F55AF"/>
<path d="M322.627 453H446.542C450.801 453 454.254 449.547 454.254 445.287V404.668H322.627V453Z" fill="#453D83"/>
<path d="M416.969 253.438C415.795 251.762 414.005 250.621 411.99 250.266L347.177 238.837C345.163 238.482 343.089 238.942 341.414 240.115C339.738 241.288 338.597 243.079 338.243 245.094L331.1 285.603C330.36 289.797 333.161 293.798 337.356 294.537L402.17 305.965C402.623 306.046 403.073 306.084 403.518 306.084C407.19 306.084 410.445 303.451 411.104 299.709L418.247 259.201C418.602 257.186 418.143 255.113 416.969 253.438Z" fill="#59C36A"/>
<path d="M376.824 267.962C376.379 267.962 375.929 267.924 375.476 267.844C371.281 267.105 368.48 263.105 369.22 258.91L372.792 238.655C373.531 234.46 377.532 231.657 381.726 232.399C385.921 233.139 388.722 237.139 387.982 241.334L384.41 261.588C383.751 265.329 380.496 267.962 376.824 267.962Z" fill="#453D83"/>
<path d="M409.008 330.628H343.194C338.935 330.628 335.481 334.081 335.481 338.34V379.474C335.481 383.733 338.935 387.186 343.194 387.186H409.008C413.267 387.186 416.72 383.733 416.72 379.474V338.34C416.72 334.081 413.267 330.628 409.008 330.628Z" fill="#FF9100"/>
<path d="M376.101 354.279C371.842 354.279 368.389 350.826 368.389 346.567V326C368.389 321.741 371.842 318.287 376.101 318.287C380.361 318.287 383.814 321.741 383.814 326V346.567C383.814 350.826 380.361 354.279 376.101 354.279Z" fill="#453D83"/>
<path d="M302.06 244.247H236.247C231.987 244.247 228.534 247.7 228.534 251.96V293.093C228.534 297.353 231.987 300.806 236.247 300.806H302.06C306.32 300.806 309.773 297.353 309.773 293.093V251.96C309.773 247.7 306.32 244.247 302.06 244.247Z" fill="#FED843"/>
<path d="M269.154 267.899C264.895 267.899 261.441 264.445 261.441 260.186V239.619C261.441 235.36 264.895 231.907 269.154 231.907C273.413 231.907 276.867 235.36 276.867 239.619V260.186C276.867 264.445 273.413 267.899 269.154 267.899Z" fill="#5F55AF"/>
<path d="M313.442 367.418L306.299 326.909C305.944 324.895 304.803 323.104 303.127 321.93C301.452 320.757 299.379 320.297 297.365 320.653L232.55 332.082C230.536 332.436 228.745 333.578 227.572 335.253C226.398 336.929 225.939 339.002 226.294 341.016L233.437 381.525C234.097 385.266 237.351 387.899 241.023 387.899C241.468 387.899 241.918 387.86 242.371 387.781L307.185 376.352C311.38 375.613 314.181 371.613 313.442 367.418Z" fill="#97DE3D"/>
<path d="M267.716 349.778C264.044 349.778 260.79 347.146 260.13 343.404L256.559 323.149C255.819 318.954 258.62 314.954 262.815 314.215C267.009 313.474 271.01 316.275 271.749 320.471L275.32 340.725C276.06 344.92 273.259 348.92 269.064 349.659C268.611 349.739 268.161 349.778 267.716 349.778Z" fill="#5F55AF"/>
</svg>
