<svg width="56" height="56" viewBox="0 0 56 56" fill="none" xmlns="http://www.w3.org/2000/svg">
<g clip-path="url(#clip0)">
<path d="M52.6659 0.292786H3.60036C1.92022 0.293627 0.558173 1.65651 0.558594 3.33708V52.4027C0.559435 54.0828 1.92232 55.4449 3.60289 55.4445H52.6659C54.3469 55.4449 55.7098 54.0824 55.7102 52.4014C55.7102 52.401 55.7102 52.4006 55.7102 52.4002V3.33456C55.7094 1.65441 54.3465 0.292365 52.6659 0.292786V0.292786Z" fill="#4267B2"/>
<path d="M38.6371 55.4445V34.1163H45.8273L46.9045 25.7682H38.6371V20.4513C38.6371 18.0398 39.3066 16.3967 42.7645 16.3967H47.1469V8.95027C46.3844 8.84887 43.7685 8.62207 40.7246 8.62207C34.3692 8.62207 30.0197 12.4999 30.0197 19.6245V25.7682H22.8564V34.1163H30.0197V55.4445H38.6371Z" fill="#F6F6F6"/>
</g>
<defs>
<clipPath id="clip0">
<rect x="0.558594" y="0.292786" width="55.1516" height="55.1517" rx="27.5758" fill="white"/>
</clipPath>
</defs>
</svg>
