<svg width="56" height="56" viewBox="0 0 56 56" fill="none" xmlns="http://www.w3.org/2000/svg">
<g clip-path="url(#clip0)">
<path d="M45.5015 48.8413C40.7188 52.8807 34.5144 55.4444 27.7603 55.4444C17.7102 55.4444 8.88804 49.9077 4.10547 41.8289L5.89596 33.5753L13.8324 32.1019C15.6744 38.0479 21.2325 42.4105 27.7603 42.4105C30.9271 42.4105 33.8679 41.4088 36.2916 39.6314L43.918 40.7948L45.5015 48.8413Z" fill="#59C36A"/>
<path d="M45.5014 48.8413L43.918 40.7948L36.2915 39.6314C33.8679 41.4088 30.9271 42.4105 27.7603 42.4105V55.4444C34.5143 55.4444 40.7187 52.8807 45.5014 48.8413Z" fill="#00A66C"/>
<path d="M13.2184 27.8686C13.2184 29.355 13.4447 30.7769 13.8324 32.1019L4.10551 41.8289C1.68185 37.7571 0.18457 32.9743 0.18457 27.8686C0.18457 22.7626 1.68185 17.9801 4.10551 13.9083L11.9122 15.2519L13.8324 23.6353C13.4447 24.9601 13.2184 26.382 13.2184 27.8686Z" fill="#FFDA2D"/>
<path d="M55.3361 27.8686C55.3361 36.2705 51.4476 43.8001 45.5015 48.8413L36.2916 39.6314C38.1658 38.2741 39.7493 36.4644 40.7834 34.3317H27.7603C26.8554 34.3317 26.1445 33.6206 26.1445 32.7159V23.0213C26.1445 22.1163 26.8554 21.4055 27.7603 21.4055H53.2679C54.0435 21.4055 54.7221 21.9548 54.8514 22.7303C55.1745 24.4109 55.3361 26.1558 55.3361 27.8686V27.8686Z" fill="#4086F4"/>
<path d="M40.7835 34.3317C39.7494 36.4644 38.1657 38.2741 36.2916 39.6314L45.5014 48.8413C51.4475 43.8001 55.3361 36.2706 55.3361 27.8686C55.3361 26.1558 55.1745 24.4109 54.8512 22.7303C54.7221 21.9548 54.0433 21.4055 53.2678 21.4055H27.7603V34.3317H40.7835Z" fill="#4175DF"/>
<path d="M45.9539 7.99452C45.9862 8.44694 45.7923 8.86715 45.5015 9.19019L38.586 16.0734C38.0367 16.6551 37.1319 16.7197 36.4856 16.235C33.9325 14.3285 30.9271 13.3267 27.7603 13.3267C21.2325 13.3267 15.6744 17.6892 13.8324 23.6353L4.10547 13.9084C8.88804 5.8295 17.7103 0.292786 27.7603 0.292786C34.1911 0.292786 40.4603 2.66258 45.3722 6.79885C45.7277 7.0898 45.9216 7.54211 45.9539 7.99452V7.99452Z" fill="#FF641A"/>
<path d="M36.4854 16.235C37.1317 16.7198 38.0364 16.6551 38.5858 16.0734L45.5013 9.19019C45.7922 8.86715 45.9861 8.44705 45.9537 7.99452C45.9213 7.542 45.7275 7.0898 45.372 6.79885C40.4602 2.66258 34.191 0.292786 27.7603 0.292786V13.3267C30.9271 13.3267 33.9324 14.3285 36.4854 16.235Z" fill="#F03800"/>
</g>
<defs>
<clipPath id="clip0">
<rect x="0.18457" y="0.292786" width="55.1516" height="55.1517" rx="27.5758" fill="white"/>
</clipPath>
</defs>
</svg>
