<svg width="31" height="31" viewBox="0 0 31 31" fill="none" xmlns="http://www.w3.org/2000/svg">
<path d="M15.4997 2.58331C8.36967 2.58331 2.58301 8.36998 2.58301 15.5C2.58301 22.63 8.36967 28.4166 15.4997 28.4166C22.6297 28.4166 28.4163 22.63 28.4163 15.5C28.4163 8.36998 22.6297 2.58331 15.4997 2.58331ZM15.4997 6.45831C17.6438 6.45831 19.3747 8.18915 19.3747 10.3333C19.3747 12.4775 17.6438 14.2083 15.4997 14.2083C13.3555 14.2083 11.6247 12.4775 11.6247 10.3333C11.6247 8.18915 13.3555 6.45831 15.4997 6.45831ZM15.4997 24.8C12.2705 24.8 9.41593 23.1466 7.74967 20.6408C7.78842 18.0704 12.9163 16.6625 15.4997 16.6625C18.0701 16.6625 23.2109 18.0704 23.2497 20.6408C21.5834 23.1466 18.7288 24.8 15.4997 24.8Z" fill="#6E6E6E"/>
</svg>
