<svg width="30" height="30" viewBox="0 0 30 30" fill="none" xmlns="http://www.w3.org/2000/svg">
<path d="M24.1431 16.5195L10.8867 14.3213L12.6441 22.6803L24.1431 16.5195Z" fill="#D12053"/>
<path d="M24.1426 16.5195L14.1534 1.83301L10.8887 14.324L24.1426 16.5195Z" fill="#E2136E"/>
<path d="M10.5789 14.1548L0.112305 0L13.8187 1.73265L10.5789 14.1548Z" fill="#D12053"/>
<path d="M5.81202 8.24012L0 2.44434H1.52987L5.81202 8.24012Z" fill="#9E1638"/>
<path d="M26.9704 9.37988L24.5106 16.4401L20.5234 10.6046L26.9704 9.37988Z" fill="#D12053"/>
<path d="M14.1914 22.2575L23.8431 18.1547L24.2481 16.8506L14.1914 22.2575Z" fill="#E2136E"/>
<path d="M6.47168 30.0002L10.6063 14.6523L12.7037 24.6382L6.47168 30.0002Z" fill="#9E1638"/>
<path d="M27.3548 9.43555L26.3398 12.3506L29.9995 12.2871L27.3548 9.43555Z" fill="#E2136E"/>
</svg>
