<svg width="40" height="40" viewBox="0 0 40 40" fill="none" xmlns="http://www.w3.org/2000/svg">
<path d="M20 0C8.96 0 0 8.96 0 20C0 31.04 8.96 40 20 40C31.04 40 40 31.04 40 20C40 8.96 31.04 0 20 0ZM22.82 32.18V36H17.48V32.14C14.06 31.42 11.16 29.22 10.94 25.34H14.86C15.06 27.44 16.5 29.08 20.16 29.08C24.08 29.08 24.96 27.12 24.96 25.9C24.96 24.24 24.08 22.68 19.62 21.62C14.66 20.42 11.26 18.38 11.26 14.28C11.26 10.84 14.04 8.6 17.48 7.86V4H22.82V7.9C26.54 8.8 28.4 11.62 28.52 14.68H24.6C24.5 12.46 23.32 10.94 20.16 10.94C17.16 10.94 15.36 12.3 15.36 14.22C15.36 15.9 16.66 17 20.7 18.04C24.74 19.08 29.06 20.82 29.06 25.86C29.04 29.52 26.3 31.52 22.82 32.18Z" fill="#00AD7C"/>
</svg>
