<svg width="27" height="27" viewBox="0 0 27 27" fill="none" xmlns="http://www.w3.org/2000/svg">
<path d="M13.5 0C6.03889 0 0 6.03794 0 13.5C0 20.9611 6.03789 27 13.5 27C20.9611 27 27 20.9621 27 13.5C27 6.03895 20.9621 0 13.5 0ZM15.8428 22.6406C14.1654 22.6407 12.7711 21.3302 12.7082 19.6658C12.7039 19.5533 12.7067 19.9186 12.7059 13.4999H11.1176V11.9117H12.7059V7.54406C12.7059 6.88728 12.1715 6.35289 11.5147 6.35289C10.8579 6.35289 10.3235 6.88728 10.3235 7.54406V7.94112H8.73529V7.54406C8.73529 6.01147 9.98211 4.76465 11.5147 4.76465C13.0472 4.76465 14.2941 6.01147 14.2941 7.54406V11.9118H18.2647V13.5H14.2941C14.2944 17.8885 14.2934 19.556 14.2953 19.6059C14.3302 20.528 15.1966 21.1753 16.0914 21.0326C17.7801 20.763 17.9551 19.4212 17.565 18.641L16.7603 17.0316L18.1808 16.3213L18.9856 17.9307C20.033 20.0257 18.6133 22.6406 15.8428 22.6406V22.6406Z" fill="#6E6E6E"/>
</svg>
