<svg width="30" height="30" viewBox="0 0 30 30" fill="none" xmlns="http://www.w3.org/2000/svg">
<path fill-rule="evenodd" clip-rule="evenodd" d="M0 30H30V0H0V30Z" fill="#8C3493"/>
<path fill-rule="evenodd" clip-rule="evenodd" d="M20.9044 4.87378L17.342 10.1953L17.5919 13.1832L18.2485 11.1289L20.2794 15.0036L23.1232 1.93311L13.6543 7.81492L16.2172 9.82199L20.9044 4.87378Z" fill="white"/>
<path d="M16.4364 19.8116C16.4364 19.8116 14.4988 19.8116 14.3425 19.8116C13.0457 19.9283 12.6238 16.7311 14.2176 16.3106C14.6863 16.3106 16.4364 16.3106 16.4364 16.3106V19.8116ZM17.8104 14.21C17.8104 14.21 14.7945 14.21 14.0604 14.21C11.2008 14.8639 10.9041 21.0722 14.0291 21.9127H17.8104V16.3106C19.0709 16.3731 19.3314 18.7224 18.4041 19.5782C18.5917 19.9051 19.3419 21.1189 19.3419 21.1189C21.3105 18.5825 20.1855 14.4123 17.8104 14.21Z" fill="white"/>
<path fill-rule="evenodd" clip-rule="evenodd" d="M25.6542 17.0104C25.0292 17.0104 24.2792 17.0104 24.2792 17.0104L23.6852 19.0647C23.6852 19.0647 25.279 19.0647 25.4353 19.0647C25.7872 19.0411 25.8027 19.8112 25.4353 19.858C24.9824 19.858 22.4042 19.858 22.4042 19.858V16.3102H27.0604V14.2096C27.0604 14.2096 26.4122 14.2096 26.3731 14.2096C26.1697 9.8685 22.6932 9.74022 21.7792 12.1094C21.959 12.3308 22.8104 13.4631 22.8104 13.4631C23.334 12.2377 24.787 12.2961 24.9979 14.2096H21.0293V21.9123H25.4979C26.5135 21.8887 26.9823 20.7685 27.0917 19.8112C27.154 18.271 26.529 17.2438 25.6542 17.0104Z" fill="white"/>
<path fill-rule="evenodd" clip-rule="evenodd" d="M12.2779 14.21H10.4655C9.88736 15.2603 8.88723 19.5083 10.8717 22.706C10.8717 22.706 11.731 21.6089 11.9028 21.3991C11.2936 20.5118 10.278 16.8941 12.2779 14.21Z" fill="white"/>
<path fill-rule="evenodd" clip-rule="evenodd" d="M7.66667 22.7798C7.66667 23.7171 7.15792 24.4766 6.53044 24.4766C5.90296 24.4766 5.39453 23.7171 5.39453 22.7798C5.39453 21.8425 5.90296 21.0825 6.53044 21.0825C7.15792 21.0825 7.66667 21.8425 7.66667 22.7798Z" fill="white"/>
<path fill-rule="evenodd" clip-rule="evenodd" d="M7.62285 19.8116C7.62285 19.8116 5.68523 19.8116 5.52898 19.8116C4.23216 19.9283 3.81023 16.7311 5.40404 16.3106C5.87279 16.3106 7.62285 16.3106 7.62285 16.3106V19.8116ZM5.24779 14.21C2.38847 14.8639 2.09148 21.0722 5.21648 21.9127H5.23725C5.45922 21.1764 5.95401 20.6637 6.52941 20.6637C7.10481 20.6637 7.5996 21.1764 7.82126 21.9127H8.99779C8.99779 21.6557 8.99779 14.21 8.99779 14.21C8.99779 14.21 5.98222 14.21 5.24779 14.21Z" fill="white"/>
<path fill-rule="evenodd" clip-rule="evenodd" d="M6.53265 11.4411C6.53265 11.5383 6.47963 11.6175 6.41453 11.6175H5.8165V11.2447H6.41453C6.47963 11.2447 6.53265 11.3239 6.53265 11.4212V11.4411ZM6.59217 12.3895C7.05255 12.2728 7.27917 10.8608 6.52923 10.5459C6.44336 10.5459 5.31055 10.5459 5.31055 10.5459V13.23H5.8103V12.3895L6.37298 13.23H7.15454L6.59217 12.3895Z" fill="white"/>
<path fill-rule="evenodd" clip-rule="evenodd" d="M8.02381 12.4609C7.80277 12.4609 7.62357 12.1932 7.62357 11.8631C7.62357 11.5329 7.80277 11.2652 8.02381 11.2652C8.24485 11.2652 8.42405 11.5329 8.42405 11.8631C8.42405 12.1932 8.24485 12.4609 8.02381 12.4609ZM8.02381 10.5029C7.52096 10.5029 7.11328 11.1119 7.11328 11.8631C7.11328 12.6142 7.52096 13.2232 8.02381 13.2232C8.52666 13.2232 8.93434 12.6142 8.93434 11.8631C8.93434 11.1119 8.52666 10.5029 8.02381 10.5029Z" fill="white"/>
<path fill-rule="evenodd" clip-rule="evenodd" d="M13.1902 11.276H14.0086V10.4873H13.3161C12.7717 10.4873 12.3262 11.1014 12.3262 11.8516C12.3262 12.6018 12.7717 13.2159 13.3161 13.2159H14.0086V12.4272H13.1902C13.0702 12.4272 12.9633 12.3416 12.8944 12.2096H14.0086V11.4936H12.8944C12.9633 11.3616 13.0702 11.276 13.1902 11.276Z" fill="white"/>
<path fill-rule="evenodd" clip-rule="evenodd" d="M9.93694 12.4272C9.73078 12.4272 9.56213 12.1753 9.56213 11.8673V11.8358C9.56213 11.5279 9.73078 11.276 9.93694 11.276H10.7148V10.4873H10.0172C9.47284 10.4873 9.02734 11.1014 9.02734 11.8516C9.02734 12.6018 9.47284 13.2159 10.0172 13.2159H10.7148V12.4272H9.93694Z" fill="white"/>
<path fill-rule="evenodd" clip-rule="evenodd" d="M15.9082 10.5391H14.1445V11.2448H14.7903V13.1741H15.2625V11.2448H15.9082V10.5391Z" fill="white"/>
<path d="M11.7129 11.8464L12.5809 10.5391H11.8784L11.3901 11.2745V10.5391H10.918V13.1741H11.3901V12.4188L11.8917 13.1741H12.5946L11.7129 11.8464Z" fill="white"/>
<path d="M18.8147 23.2186C18.7366 23.2417 18.6681 23.3149 18.6089 23.4381C18.5518 23.5552 18.5236 23.6738 18.5236 23.7942C18.5236 23.8664 18.5335 23.9368 18.5537 24.0044C18.5788 24.091 18.6132 24.1336 18.6566 24.1336C18.6786 24.1336 18.7072 24.116 18.7422 24.0804L18.7912 24.2763C18.7468 24.3161 18.7037 24.336 18.6619 24.336C18.6052 24.336 18.5506 24.3045 18.4979 24.2415C18.4675 24.205 18.4384 24.135 18.4111 24.0318C18.3974 23.9813 18.3906 23.9049 18.3906 23.8035V23.7321C18.3906 23.5724 18.4474 23.3927 18.5608 23.1926C18.585 23.1514 18.6256 23.0926 18.6824 23.0176H18.8606V23.2116C18.8439 23.2149 18.8284 23.2172 18.8147 23.2186Z" fill="white"/>
<path d="M19.4556 23.2121H19.1062C19.2051 23.3075 19.2563 23.4325 19.2606 23.5867C19.3235 23.6238 19.3886 23.6969 19.4556 23.8067V23.2121ZM19.6041 23.2121V24.3207H19.4556V24.1776C19.4556 24.1281 19.4305 24.0651 19.3803 23.9882C19.3424 23.9299 19.3028 23.8789 19.2609 23.8359C19.2147 23.7882 19.1645 23.7646 19.1099 23.7646C19.0544 23.7646 19.0141 23.7998 18.989 23.8711C18.9859 23.8789 18.9844 23.8887 18.9844 23.9012C18.9844 23.9308 18.994 23.9572 19.0135 23.9813C19.0327 24.0054 19.0523 24.0169 19.0724 24.0169C19.0879 24.0169 19.1257 23.9998 19.1856 23.9655L19.2293 24.167C19.1629 24.2175 19.1081 24.2429 19.0637 24.2429C19.0141 24.2429 18.9692 24.2221 18.928 24.1809C18.887 24.1392 18.857 24.085 18.838 24.0174C18.8297 23.9882 18.8253 23.9526 18.8253 23.9095C18.8253 23.784 18.8604 23.6881 18.9298 23.6219C18.9782 23.5747 19.0299 23.5506 19.0848 23.5506C19.0898 23.5506 19.0947 23.5506 19.0991 23.5506C19.0978 23.5122 19.0842 23.4686 19.0578 23.42C19.0315 23.3723 19.0058 23.3482 18.9803 23.3482H18.816V23.2121H18.75V23.0176H19.7055V23.2121H19.6041Z" fill="white"/>
<path d="M19.8927 23.2121V24.3207H19.7442V23.2121H19.6348V23.0176H19.9916V23.2121H19.8927Z" fill="white"/>
<path d="M20.6168 23.452C20.5893 23.4659 20.5598 23.4816 20.5279 23.5001C20.4814 23.5307 20.3967 23.5863 20.274 23.6659L20.2458 23.6844C20.3629 23.7456 20.4749 23.8363 20.5818 23.9563C20.5955 23.9716 20.6072 23.9845 20.6168 23.9952V23.452ZM20.6082 23.2121H19.9395V23.0176H20.8652V23.2121H20.7626V24.3207H20.6314C20.6187 24.2638 20.5545 24.1753 20.4386 24.0558C20.3915 24.0072 20.326 23.9595 20.243 23.9137C20.1543 23.8641 20.0839 23.84 20.0312 23.84L19.9918 23.6191C20.0263 23.5775 20.1221 23.5061 20.2786 23.4052C20.345 23.3621 20.4547 23.2978 20.6082 23.2121Z" fill="white"/>
<path d="M21.0506 23.2121V24.3207H20.9024V23.2121H20.793V23.0176H21.1495V23.2121H21.0506Z" fill="white"/>
<path d="M21.6135 24.5072C21.5534 24.4257 21.4892 24.3503 21.421 24.2794C21.3885 24.2461 21.3342 24.2086 21.2586 24.1673C21.1987 24.1349 21.1634 24.1187 21.1528 24.1187L21.1547 23.8594C21.1671 23.8594 21.1863 23.8603 21.2121 23.8626C21.2378 23.8649 21.257 23.8663 21.2697 23.8663C21.337 23.8663 21.3916 23.8534 21.4337 23.8274C21.5134 23.7774 21.5534 23.7186 21.5534 23.6505C21.5534 23.6005 21.5382 23.5588 21.5078 23.5255C21.4784 23.4995 21.4483 23.4745 21.4179 23.4505C21.4095 23.4444 21.4009 23.4412 21.3928 23.4412C21.3748 23.4412 21.3553 23.4481 21.3342 23.4616C21.3078 23.4801 21.2961 23.5005 21.2979 23.5232C21.3032 23.5806 21.3438 23.6047 21.4195 23.5959L21.3392 23.7797C21.3066 23.783 21.2734 23.7677 21.2396 23.7339C21.1786 23.6723 21.1482 23.5973 21.1482 23.5083C21.1482 23.4194 21.1792 23.3504 21.2412 23.3009C21.2917 23.2597 21.3497 23.2388 21.4148 23.2388C21.443 23.2388 21.4678 23.2462 21.4883 23.2597C21.5087 23.2736 21.5295 23.2888 21.5506 23.3055C21.6514 23.3824 21.7019 23.4986 21.7019 23.6547C21.7019 23.7668 21.6709 23.8571 21.6089 23.9261C21.5614 23.9779 21.4936 24.0154 21.4052 24.0386C21.4315 24.0567 21.4694 24.0881 21.5187 24.1326C21.603 24.2275 21.6709 24.3127 21.7223 24.3878L21.6135 24.5072ZM21.0977 23.212V23.0175H21.536C21.5373 23.0096 21.5379 23.004 21.5379 23.0013C21.5379 22.8994 21.5056 22.8327 21.4415 22.8003C21.4331 22.797 21.4235 22.7956 21.4129 22.7956C21.3971 22.7956 21.3779 22.8003 21.3547 22.8095C21.3234 22.822 21.3041 22.829 21.2979 22.8308C21.2728 22.8369 21.2508 22.8484 21.2319 22.8656C21.2077 22.8906 21.1798 22.9133 21.1482 22.9336L21.1011 22.7692C21.1578 22.7104 21.2322 22.6604 21.3249 22.6187C21.3637 22.6016 21.4005 22.5933 21.4353 22.5933C21.4722 22.5933 21.5134 22.6132 21.5599 22.6535C21.6386 22.7239 21.6796 22.8452 21.683 23.0175H21.7679V23.212H21.0977Z" fill="white"/>
<path d="M22.6576 23.2121V24.3207H22.5094V23.8808C22.5094 23.8424 22.4982 23.8035 22.4762 23.7627C22.4542 23.7224 22.4306 23.702 22.4055 23.702C22.3823 23.702 22.3602 23.7233 22.3392 23.7659C22.3181 23.809 22.3078 23.8572 22.3078 23.9123H22.1473C22.1473 23.8507 22.1367 23.7979 22.1156 23.7534C22.0942 23.709 22.0701 23.6863 22.0425 23.6863C22.0192 23.6863 21.9969 23.6988 21.9758 23.7233C21.9547 23.7479 21.9433 23.7766 21.9411 23.809L21.9364 23.8664V23.8891C21.9364 24.0031 21.9829 24.06 22.0763 24.06C22.0911 24.06 22.1163 24.0554 22.1519 24.0461L22.0998 24.2698C22.0694 24.2754 22.0508 24.2777 22.0446 24.2777C21.9752 24.2777 21.911 24.2392 21.8521 24.1624C21.8289 24.1332 21.8103 24.0887 21.7954 24.029C21.7817 23.9753 21.7749 23.9229 21.7749 23.872C21.7749 23.7521 21.7994 23.6548 21.849 23.5807C21.8986 23.5061 21.9634 23.4686 22.0434 23.4686C22.1181 23.4686 22.1807 23.5219 22.2313 23.6279C22.2858 23.5219 22.3451 23.4686 22.408 23.4686C22.443 23.4686 22.4765 23.4923 22.5094 23.5395V23.2121H21.707V23.0176H22.7416V23.2121H22.6576Z" fill="white"/>
<path d="M23.7786 23.452C23.7514 23.4659 23.7216 23.4816 23.69 23.5001C23.6435 23.5307 23.5588 23.5863 23.4361 23.6659L23.4076 23.6844C23.525 23.7456 23.637 23.8363 23.7439 23.9563C23.7576 23.9716 23.7693 23.9845 23.7786 23.9952V23.452ZM23.7703 23.2121H23.1016V23.0176H24.0273V23.2121H23.9247V24.3207H23.7935C23.7808 24.2638 23.7166 24.1753 23.6007 24.0558C23.5533 24.0072 23.4882 23.9595 23.4048 23.9137C23.3164 23.8641 23.246 23.84 23.1933 23.84L23.1536 23.6191C23.1884 23.5775 23.2842 23.5061 23.4407 23.4052C23.5071 23.3621 23.6168 23.2978 23.7703 23.2121Z" fill="white"/>
<path d="M24.2754 23.2121C24.2283 23.3089 24.205 23.389 24.205 23.452C24.205 23.4811 24.2289 23.5983 24.2769 23.803C24.3017 23.9063 24.3145 23.9915 24.3145 24.0596C24.3145 24.1888 24.2661 24.2786 24.1694 24.3295C24.1399 24.3467 24.0875 24.3601 24.0119 24.3712L24.0317 24.1795C24.1195 24.1517 24.1635 24.1059 24.1635 24.041C24.1635 23.9808 24.1452 23.8887 24.1086 23.7636C24.072 23.6391 24.054 23.5474 24.054 23.489C24.054 23.4135 24.0751 23.3214 24.1173 23.2121H23.9629V23.0176H24.3768V23.2121H24.2754Z" fill="white"/>
<path d="M24.5936 23.2121V24.3207H24.4451V23.2121H24.3359V23.0176H24.6925V23.2121H24.5936Z" fill="white"/>
<path d="M24.9664 23.2861C24.9515 23.2708 24.9367 23.2643 24.9218 23.2676C24.8657 23.2815 24.8378 23.3227 24.8378 23.3917C24.8378 23.4274 24.8471 23.4598 24.8657 23.4899C24.8843 23.5195 24.905 23.5348 24.9283 23.5348L24.9488 23.5302C24.9912 23.5103 25.0123 23.4718 25.0123 23.4149C25.0123 23.3611 24.9971 23.3181 24.9664 23.2861ZM25.0976 24.4517C24.9094 24.2151 24.782 24.0729 24.7144 24.0252L24.7162 23.7191C24.9748 23.9956 25.1441 24.216 25.2237 24.3804V24.6083L25.0976 24.4517ZM24.9354 23.7372C24.866 23.7372 24.8102 23.7043 24.768 23.639C24.7262 23.5737 24.7051 23.4894 24.7051 23.3866C24.7051 23.2912 24.7265 23.212 24.7699 23.1481C24.8127 23.0842 24.8663 23.0522 24.9308 23.0522C25.0179 23.0522 25.0808 23.1175 25.1199 23.2481C25.1366 23.3037 25.1453 23.3584 25.1453 23.4121C25.1453 23.5116 25.127 23.5913 25.0907 23.6496C25.0545 23.708 25.0027 23.7372 24.9354 23.7372Z" fill="white"/>
<path d="M26.1573 22.8874C25.9843 22.7253 25.8429 22.6438 25.7329 22.6438C25.603 22.6438 25.5075 22.7054 25.4467 22.8281C25.4256 22.8712 25.4142 22.9346 25.412 23.0175H25.5162V23.212H25.412V24.3207H25.261V23.212H25.1621V23.0175H25.261C25.2641 22.86 25.2988 22.7322 25.3652 22.6341C25.4312 22.5363 25.5211 22.4761 25.6349 22.453C25.6464 22.4516 25.6687 22.4479 25.7012 22.4414H25.7325C25.8231 22.4414 25.913 22.4706 26.0026 22.5289C26.0509 22.5627 26.1303 22.6299 26.2407 22.7313L26.1573 22.8874Z" fill="white"/>
<path d="M25.8867 23.4682C25.8625 23.4955 25.8256 23.5325 25.776 23.5784C25.7636 23.5863 25.7491 23.602 25.7329 23.6256C25.7165 23.6497 25.701 23.6715 25.6861 23.6914C25.7019 23.7127 25.7271 23.7428 25.7621 23.7812C25.7946 23.8363 25.8362 23.9049 25.8867 23.9859V23.4682ZM26.0352 23.2121V23.219C26.0972 23.2237 26.162 23.2528 26.2293 23.3066C26.3238 23.3839 26.3713 23.4885 26.3713 23.621C26.3713 23.6983 26.3555 23.765 26.3238 23.8211C26.2919 23.8771 26.2507 23.9141 26.1995 23.9317C26.1484 23.9498 26.105 23.9521 26.069 23.9401V23.7303C26.0861 23.7335 26.1016 23.7354 26.1164 23.7354C26.1908 23.7354 26.2281 23.6951 26.2281 23.6154C26.2281 23.52 26.1636 23.4603 26.0352 23.4358V24.3207H25.9044C25.883 24.2591 25.8622 24.2119 25.8411 24.1781C25.8337 24.1656 25.8148 24.129 25.7841 24.0674C25.7748 24.0475 25.7574 24.0225 25.7323 23.9915C25.7069 23.9609 25.6895 23.9359 25.6802 23.916C25.6759 23.9067 25.6641 23.8965 25.6452 23.8859C25.581 23.8521 25.529 23.8349 25.489 23.8349L25.4496 23.6145C25.4825 23.5793 25.5559 23.5131 25.6706 23.4168C25.679 23.4075 25.714 23.3769 25.7757 23.3246C25.7977 23.3047 25.8349 23.2723 25.8867 23.2278V23.2121H25.418V23.0176H26.437V23.2121H26.0352Z" fill="white"/>
<path d="M26.6891 23.2861C26.6745 23.2708 26.6596 23.2643 26.6447 23.2676C26.5886 23.2815 26.5607 23.3227 26.5607 23.3917C26.5607 23.4274 26.57 23.4598 26.5886 23.4899C26.6069 23.5195 26.628 23.5348 26.6513 23.5348L26.6717 23.5302C26.7142 23.5103 26.7353 23.4718 26.7353 23.4149C26.7353 23.3611 26.7198 23.3181 26.6891 23.2861ZM26.8205 24.4517C26.6323 24.2151 26.5046 24.0729 26.4373 24.0252L26.4389 23.7191C26.6978 23.9956 26.8667 24.216 26.9467 24.3804V24.6083L26.8205 24.4517ZM26.6584 23.7372C26.5889 23.7372 26.5331 23.7043 26.491 23.639C26.4488 23.5737 26.4277 23.4894 26.4277 23.3866C26.4277 23.2912 26.4494 23.212 26.4925 23.1481C26.5356 23.0842 26.5893 23.0522 26.6534 23.0522C26.7409 23.0522 26.8038 23.1175 26.8429 23.2481C26.8596 23.3037 26.868 23.3584 26.868 23.4121C26.868 23.5116 26.85 23.5913 26.8137 23.6496C26.7774 23.708 26.7254 23.7372 26.6584 23.7372Z" fill="white"/>
<path d="M10.25 24.4155L10.5265 24.5549L10.6372 24.4155L10.3607 24.2705L10.25 24.4155Z" fill="white"/>
<path d="M10.1017 23.7905C10.1296 23.8026 10.1664 23.7354 10.194 23.6803C10.194 23.7415 10.194 23.8396 10.194 23.9373C10.194 24.0355 10.1416 24.1212 10.1017 24.1212C10.062 24.1212 9.71475 24.1212 9.71475 24.1212V23.7905C9.71475 23.7905 10.0679 23.7905 10.1017 23.7905ZM10.3416 23.2686V23.0186H8.16992V23.2686H8.53482V23.8271C8.53482 23.8271 8.81445 23.8271 8.84825 23.8271C8.84825 23.8271 8.93722 23.7845 8.95892 23.7169C8.95892 23.7966 8.95892 23.9068 8.95892 23.9373C8.95892 24.0355 8.90963 24.1212 8.84825 24.1212C8.78686 24.1212 8.41515 24.1212 8.38756 24.1212C8.35965 24.1212 8.33206 24.1027 8.33206 23.9373C8.33206 23.772 8.33206 23.4168 8.33206 23.4168H8.16992C8.16992 23.4168 8.16992 24.0295 8.16992 24.0846C8.16992 24.1397 8.19317 24.3342 8.30974 24.3342C8.42662 24.3342 8.90994 24.3342 8.93443 24.3342C9.03178 24.3296 9.10091 24.1814 9.10618 24.0568C9.10618 23.7873 9.10618 23.4168 9.10618 23.4168H8.95892C8.94342 23.515 8.95272 23.5821 8.88514 23.6067C8.81755 23.6067 8.70068 23.6067 8.70068 23.6067V23.2686H9.23546V24.3342H9.41961V23.2686H9.54889V24.3342C9.54889 24.3342 10.1141 24.3342 10.1571 24.3342C10.2002 24.3342 10.3416 24.2805 10.3416 24.048C10.3416 23.8151 10.3416 23.4168 10.3416 23.4168H10.194C10.194 23.4779 10.1878 23.5701 10.1203 23.5701C10.0527 23.5701 9.71475 23.5701 9.71475 23.5701V23.2686H10.3416Z" fill="white"/>
<path d="M10.543 23.8639H10.9116V23.5703H10.543V23.8639Z" fill="white"/>
<path d="M11.7245 24.1578C11.7245 24.1578 11.3711 24.1578 11.3559 24.1578C11.3007 24.1457 11.2638 24.048 11.2638 23.9373C11.2638 23.8271 11.2638 23.6433 11.2638 23.6433H11.7245V24.1578ZM11.1172 23.0186V23.2686H11.7245V23.4168H11.1172C11.1172 23.4168 11.1172 23.9679 11.1172 24.011C11.1302 24.2046 11.1966 24.3342 11.3227 24.3342C11.4731 24.3342 11.8721 24.3342 11.8721 24.3342V23.2686H12.0011V24.3342H12.1669V23.0186H11.1172Z" fill="white"/>
<path d="M12.9629 23.2686H13.715V23.4168C13.6812 23.4168 13.5153 23.4168 13.494 23.4168C13.4847 23.521 13.3709 23.5775 13.3464 23.4168C13.2236 23.4168 12.9629 23.4168 12.9629 23.4168C12.9629 23.4168 12.9629 23.9864 12.9629 24.048C12.9629 24.1092 12.9691 24.3092 13.0816 24.3342C13.1861 24.3342 13.3833 24.3342 13.3833 24.3342V24.1212C13.3833 24.1212 13.2174 24.1212 13.1805 24.1212C13.1405 24.1027 13.1067 24.0661 13.1067 23.9744C13.1067 23.8637 13.1067 23.6433 13.1067 23.6433H13.3095V23.8271H13.494V23.6803C13.4816 23.6127 13.6874 23.6187 13.6967 23.6803C13.6967 23.772 13.6967 24.3342 13.6967 24.3342H13.8626V23.2686H13.9732V24.3342H14.1391V23.0186H12.9629V23.2686Z" fill="white"/>
<path d="M12.5811 23.4609C12.5104 23.4609 12.4531 23.422 12.4531 23.3743C12.4531 23.3271 12.5104 23.2882 12.5811 23.2882C12.6518 23.2882 12.7091 23.3271 12.7091 23.3743C12.7091 23.422 12.6518 23.4609 12.5811 23.4609ZM12.7005 23.0923C12.6329 23.0923 12.3086 23.0923 12.3086 23.0923C12.3086 23.0923 12.3086 23.3826 12.3086 23.4378C12.3241 23.548 12.3635 23.6841 12.4977 23.6948C12.6329 23.6948 12.8111 23.6948 12.8111 23.6948V23.2687C12.8018 23.1965 12.768 23.1043 12.7005 23.0923Z" fill="white"/>
<path d="M12.3359 23.8247V24.0414L12.8096 24.335V24.1053L12.3359 23.8247Z" fill="white"/>
<path d="M16.5534 23.4609C16.4828 23.4609 16.4254 23.422 16.4254 23.3743C16.4254 23.3271 16.4828 23.2882 16.5534 23.2882C16.6241 23.2882 16.6815 23.3271 16.6815 23.3743C16.6815 23.422 16.6241 23.4609 16.5534 23.4609ZM16.6728 23.0923C16.6052 23.0923 16.2812 23.0923 16.2812 23.0923C16.2812 23.0923 16.2812 23.3826 16.2812 23.4378C16.2964 23.548 16.3358 23.6841 16.4701 23.6948C16.6052 23.6948 16.7835 23.6948 16.7835 23.6948V23.2687C16.7742 23.1965 16.7404 23.1043 16.6728 23.0923Z" fill="white"/>
<path d="M16.3066 23.8247V24.0414L16.7804 24.335V24.1053L16.3066 23.8247Z" fill="white"/>
<path d="M17.5312 24.1578C17.5312 24.1578 17.1777 24.1578 17.1625 24.1578C17.107 24.1457 17.0705 24.048 17.0705 23.9373C17.0705 23.8271 17.0705 23.6433 17.0705 23.6433H17.5284L17.5308 23.6803H17.5312V24.1578ZM17.6787 23.4168V23.2686H17.9841V23.0186H16.9238V23.2686H17.5312V23.4168H16.9238C16.9238 23.4168 16.9238 23.9679 16.9238 24.011C16.9368 24.2046 17.0032 24.3342 17.1291 24.3342C17.2797 24.3342 17.6787 24.3342 17.6787 24.3342V23.6803H17.826C17.8505 23.6803 17.8567 23.6618 17.8629 23.7169C17.8629 23.7845 17.8629 23.8271 17.8629 23.8271C17.8536 23.8827 17.8505 23.9193 17.826 23.9373C17.8015 23.9373 17.7717 23.9373 17.7717 23.9373V24.1578H17.8812C17.9181 24.1518 17.9856 24.0906 17.9918 24.011C17.9918 23.8887 17.9918 23.4168 17.9918 23.4168H17.6787Z" fill="white"/>
<path d="M15.2444 24.1578C15.2444 24.1578 14.8909 24.1578 14.8754 24.1578C14.8203 24.1457 14.7834 24.048 14.7834 23.9373C14.7834 23.8271 14.7834 23.6433 14.7834 23.6433H15.2444V24.1578ZM14.6367 23.0186V23.2686H15.2444V23.4168H14.6367C14.6367 23.4168 14.6367 23.9679 14.6367 24.011C14.65 24.2046 14.7164 24.3342 14.8423 24.3342C14.9929 24.3342 15.3916 24.3342 15.3916 24.3342V23.2686H15.5838L15.5138 23.4775V23.6248C15.5138 23.6248 15.6182 23.6248 15.643 23.6248C15.7116 23.6363 15.7351 23.7044 15.7351 23.8818C15.7351 24.0045 15.7162 24.0929 15.6527 24.1027C15.6127 24.1027 15.5321 24.1027 15.5321 24.1027V24.3231C15.5321 24.3231 15.6244 24.3231 15.6613 24.3231C15.6982 24.3231 15.8672 24.3476 15.8827 24.1027C15.901 23.6062 15.9162 23.4775 15.6796 23.4409L15.7143 23.2686H15.9741V24.3342H16.14V23.0186H14.6367Z" fill="white"/>
</svg>
