<svg width="34" height="19" viewBox="0 0 34 19" fill="none" xmlns="http://www.w3.org/2000/svg">
<path d="M9.91667 0C4.43983 0 0 4.25329 0 9.5C0 14.7467 4.43983 19 9.91667 19C14.4084 19 18.1987 16.1378 19.4183 12.2143H25.5V16.2857H31.1667V12.2143H34V6.78571H19.4183C18.1987 2.86223 14.4084 0 9.91667 0ZM9.91667 5.42857C12.2641 5.42857 14.1667 7.25121 14.1667 9.5C14.1667 11.7488 12.2641 13.5714 9.91667 13.5714C7.56925 13.5714 5.66667 11.7488 5.66667 9.5C5.66667 7.25121 7.56925 5.42857 9.91667 5.42857Z" fill="#6E6E6E"/>
</svg>
