<svg width="30" height="30" viewBox="0 0 30 30" fill="none" xmlns="http://www.w3.org/2000/svg">
<path d="M27.2507 15.9972C27.2507 16.3712 27.2507 16.7867 27.2102 17.1606C27.0889 18.8227 26.6846 20.3601 26.0377 21.8144C25.7951 22.3961 25.4717 22.9363 25.1482 23.4764C22.7224 27.4238 18.4771 30 13.6253 30C11.5633 30 9.58221 29.5014 7.80323 28.6703C3.19407 26.4266 0 21.5651 0 15.9972C0 10.4709 3.07278 5.73405 7.56065 3.44873C7.19677 3.90579 6.87331 4.44596 6.5903 4.94458C6.54986 4.98613 6.54987 5.02768 6.50943 5.06923C6.34771 5.23543 6.14555 5.36009 5.98383 5.52629L5.37736 6.14956L5.25606 6.27421C5.21563 6.31577 5.1752 6.35732 5.13477 6.44042C5.05391 6.52352 4.97305 6.60662 4.93261 6.68973C4.81132 6.85593 4.6496 7.02214 4.5283 7.22989C3.96226 7.97782 3.47709 8.85039 3.11321 9.72297L2.99191 9.97228C2.95148 10.0969 2.91105 10.18 2.87062 10.3047C2.87062 10.3462 2.83019 10.4293 2.83019 10.4709C2.78976 10.6371 2.70889 10.8033 2.66846 10.9695C2.62803 11.0942 2.5876 11.1773 2.5876 11.3019C2.5876 11.3435 2.54717 11.4266 2.54717 11.4681C2.50674 11.5928 2.50674 11.6759 2.46631 11.8005C2.38544 12.1329 2.30458 12.5069 2.26415 12.8809C2.26415 12.964 2.22372 13.0471 2.22372 13.1717C2.22372 13.2548 2.22372 13.2964 2.18329 13.3795C2.18329 13.5041 2.18329 13.5872 2.14286 13.7119V14.626C2.14286 18.4487 3.84097 21.8559 6.50943 24.0997C8.57143 25.8449 11.1995 26.8836 14.0296 26.8836C16.6173 26.8836 19.0431 26.0111 20.9838 24.5568C22.3989 23.4764 23.6119 22.1052 24.4609 20.5263C24.5822 20.3185 24.6631 20.1108 24.7844 19.903C25.4717 18.4487 25.876 16.7867 25.9164 15.0831V14.6676C25.9164 14.2521 25.9164 13.8781 25.876 13.5041C25.9164 13.5041 25.9164 13.5457 25.9164 13.5457C26.1186 13.7119 26.2803 13.8781 26.442 14.0443C26.6038 13.7534 26.7655 13.4626 26.9677 13.2133C27.0889 13.7534 27.1698 14.2936 27.2102 14.8338C27.2507 15.1662 27.2507 15.5817 27.2507 15.9972Z" fill="#EA2227"/>
<path d="M25.9162 14.5847V15.0002C25.9162 17.4933 24.9054 19.5708 24.7841 19.8201C24.7032 20.0279 24.5819 20.2356 24.4606 20.4434C23.6116 22.0223 22.3986 23.4351 20.9836 24.4739C19.0429 25.9282 16.617 26.8007 14.0294 26.8007C11.1588 26.8007 8.53072 25.7619 6.50916 24.0168C3.84069 21.773 2.14258 18.3658 2.14258 14.5431V13.629C2.14258 13.5043 2.14258 13.4212 2.18301 13.2966C2.18301 13.2135 2.18301 13.1719 2.22344 13.0888C2.22344 13.0057 2.26387 12.9226 2.26387 12.798C2.3043 12.424 2.38517 12.0916 2.46603 11.7176C2.50646 11.593 2.50646 11.5099 2.54689 11.3852C2.54689 11.3437 2.58732 11.2606 2.58732 11.219C2.62775 11.0944 2.62775 11.0113 2.66819 10.8866C2.70862 10.7204 2.78948 10.5542 2.82991 10.388C2.82991 10.3464 2.87034 10.2633 2.87034 10.2218C2.91077 10.0971 2.9512 10.014 2.99163 9.88938L3.11293 9.64007C3.47681 8.76749 3.96199 7.89492 4.52802 7.14699C4.64932 6.98079 4.81104 6.81458 4.93234 6.60683C5.0132 6.52372 5.05363 6.44062 5.13449 6.35752C5.17492 6.31597 5.21535 6.27442 5.25579 6.19131L5.37708 6.06666L5.98355 5.44339C6.14527 5.27719 6.34743 5.11098 6.50916 4.98633C6.46872 5.02788 6.46872 5.06943 6.42829 5.11098C6.38786 5.15253 6.38786 5.19408 6.34743 5.27719C5.6601 6.73148 5.21535 8.39353 5.05363 10.2218C5.0132 10.7204 4.97277 11.219 4.97277 11.7176C4.97277 18.1165 8.61158 23.3104 13.1399 23.3104H13.5846C14.2315 23.3104 14.8784 23.2273 15.4849 23.0611C18.5577 22.1885 20.7814 19.3215 20.7814 15.9143V15.7065C20.741 13.6705 19.8919 11.8838 18.5577 10.5542C19.4876 10.5957 20.3771 10.7204 21.2666 10.9282C22.9242 11.3852 24.4606 12.1747 25.7544 13.255C25.7949 13.255 25.7949 13.2966 25.8353 13.2966C25.8757 13.7952 25.9162 14.1692 25.9162 14.5847Z" fill="#F69220"/>
<path d="M25.9574 14.5847V15.0002C25.9574 17.6179 24.8253 19.8617 24.8253 19.8617C24.7444 20.0694 24.6231 20.2772 24.5019 20.4849C23.6528 22.0639 22.4399 23.4766 20.9843 24.557C18.9223 26.0528 16.5369 26.8838 13.9897 26.8838C11.2404 26.8838 8.5315 25.8866 6.42908 24.0999C3.63932 21.773 2.0625 18.2827 2.0625 14.5847C2.0625 10.8866 3.67975 7.3963 6.46951 5.06943L6.5908 4.98633C6.55037 5.02788 6.55037 5.06943 6.50994 5.11098C6.46951 5.15253 6.46951 5.19408 6.42908 5.23564C3.72018 7.56251 2.14336 10.9697 2.14336 14.5847C2.14336 18.2412 3.72018 21.6899 6.46951 24.0168C8.57193 25.8035 11.2404 26.7592 13.9897 26.7592C16.4965 26.7592 18.8819 25.9697 20.9035 24.4739C22.3186 23.4351 23.5315 22.0223 24.3806 20.4434C24.5019 20.2356 24.5827 20.0279 24.704 19.8201C24.704 19.7786 25.8361 17.5764 25.8361 15.0002V14.5847C25.8361 14.2107 25.8361 13.7952 25.7957 13.4212V13.3797C25.8361 13.3797 25.8361 13.4212 25.8765 13.4212L25.917 13.4628C25.9574 13.8367 25.9574 14.2107 25.9574 14.5847Z" fill="#F69220"/>
<path d="M22.7215 6.98078C22.7215 6.98078 13.018 5.11098 8.44922 13.7952C8.44922 13.7952 9.25784 7.77026 16.212 5.06942L14.8374 2.41014C14.8374 2.41014 17.6271 -0.166032 22.5193 0.498788L22.7215 6.98078Z" fill="#EA2227"/>
<path d="M10.6738 11.5928C10.6738 11.5928 14.5552 6.39885 23.4097 7.72849L23.2884 4.69525C23.2884 4.69525 27.0081 4.5706 30 7.22988L26.3207 12.964C26.3207 12.964 23.7736 9.93071 18.5175 9.84761C16.3746 9.80605 13.7466 10.0969 10.6738 11.5928Z" fill="#F69220"/>
<path d="M6.83295 16.3296C6.83295 16.3296 2.38551 6.39889 12.6955 0L15.1618 4.65374C15.1618 4.65374 13.5041 5.23546 11.7251 6.8144C9.78443 8.51801 7.68201 11.4266 6.83295 16.3296Z" fill="#F69220"/>
<path d="M12.6948 13.6289C12.6948 13.6289 11.8457 13.8367 11.8862 13.3796C11.8862 13.2134 11.967 13.1719 12.0479 13.2134C12.0479 13.1303 11.8862 12.9226 12.25 12.7979C12.3713 12.6317 12.4926 12.4655 12.5331 12.3824C12.5735 12.2578 12.6544 12.1331 12.9778 12.1747C13.3013 12.2578 13.6651 12.5902 13.7056 12.6733C13.9077 12.6733 14.1099 12.7148 14.029 12.7564C13.9482 12.7979 13.9077 12.881 13.9482 12.881C13.9482 12.881 14.0695 12.9641 13.746 12.9641C13.746 13.0472 13.8269 13.0472 13.8673 13.0888C13.9077 13.1303 13.8673 13.1719 13.8673 13.1719C13.8673 13.1719 13.9077 13.3381 13.746 13.2965C13.5843 13.2134 13.5843 13.1719 13.5034 13.1719C13.463 13.1719 13.3417 13.2134 13.3417 13.255C13.3417 13.2965 13.5438 13.4212 13.3013 13.4627C13.2608 13.5043 13.3821 13.5458 13.3013 13.5874C13.2204 13.6289 12.8565 13.9198 12.6948 13.9614C12.5331 13.9614 12.4926 13.9198 12.4926 13.8367C12.4926 13.7536 12.5735 13.7121 12.6948 13.7121C12.7352 13.6705 12.7352 13.6289 12.6948 13.6289Z" fill="#EC1C24"/>
<path d="M12.6144 14.543C12.5335 14.543 12.291 14.3768 12.4123 14.2937C12.5335 14.2106 13.0996 13.8366 13.2209 13.7951C13.3422 13.7535 13.5039 13.9197 13.3422 14.0444C13.2209 14.169 12.6144 14.543 12.6144 14.543Z" fill="#EC1C24"/>
<path d="M13.5039 14.1275C13.5039 14.0444 13.5848 13.6705 13.5848 13.5874C13.5848 13.5043 13.8678 13.5043 13.7869 13.7951C13.7465 14.1275 13.5039 14.2106 13.5039 14.1275Z" fill="#EC1C24"/>
<path d="M13.8674 13.4627C13.8674 13.4627 15.4038 13.3796 15.5251 13.4627C15.6464 13.5458 16.172 14.3768 16.0507 15.1248C15.9294 15.8727 15.6868 16.0804 14.7165 16.1635C14.7165 15.9142 14.676 15.291 14.5547 15.1248C14.4739 14.9586 14.11 14.5846 13.9483 14.5846C13.9483 14.7508 13.9078 15.291 13.9078 15.291C13.9078 15.291 13.4227 15.3325 13.3418 15.2079V14.4184C13.3418 14.4184 13.7865 14.0029 13.827 13.9198C13.9078 13.9613 13.9078 14.2106 14.4739 14.1691C14.5143 14.086 13.8674 14.1691 13.8674 13.4627Z" fill="#EC1C24"/>
<path d="M13.3011 14.1689C13.3011 14.1689 12.8159 14.5845 12.6946 14.6676C12.6542 14.7922 12.5733 15.2493 13.2202 15.2493C13.2606 14.9584 13.3011 14.1689 13.3011 14.1689Z" fill="#EC1C24"/>
<path d="M12.1293 14.7923C11.9676 14.7923 11.8463 14.7507 11.8867 14.6261C11.8867 14.5014 12.1293 14.3768 12.2506 14.4183C12.3719 14.4599 12.6145 14.5014 12.6145 15.0416C12.6954 15.1662 13.0188 15.374 13.3827 15.4155C13.7466 15.4571 13.9892 15.374 13.9892 15.4986V16.2466C13.9892 16.2466 13.5444 16.2466 12.4123 15.4155C12.3315 15.2909 12.2506 15.2078 12.2506 15C12.2506 14.9169 12.1698 14.7923 12.1293 14.7923Z" fill="#EC1C24"/>
<path d="M11.7653 14.8755C11.5631 14.8755 11.0375 15.3326 11.4418 15.5403C11.5631 15.4572 11.644 15.3326 11.644 15.3326C11.644 15.3326 11.5631 15.5819 11.7653 15.665C11.9674 15.7481 11.8866 15.5403 12.0079 15.5403C12.0887 15.665 12.0887 15.7065 12.21 15.7065C12.3313 15.7065 12.3313 15.3741 12.21 15.2079C12.0887 15.0001 11.9674 14.917 11.7653 14.8755Z" fill="#EC1C24"/>
<path d="M14.0703 14.9585V16.4128C14.0703 16.4128 14.5555 16.2466 14.5959 16.1219C14.5959 15.8726 14.5151 14.9585 14.0703 14.9585Z" fill="#EC1C24"/>
<path d="M12.9375 15.9141C12.9375 15.9141 13.5035 16.288 13.827 16.4542C13.7866 16.5373 13.544 16.8282 13.4631 16.8282C13.3822 16.7866 12.9779 16.2049 12.9375 15.9141Z" fill="#EC1C24"/>
<path d="M10.2285 16.4541H10.9563V16.745H10.2689L10.2285 16.4541Z" fill="#EC1C24"/>
<path d="M18.5163 16.3296H15.3223L15.8479 16.7451H18.5163V16.3296Z" fill="#EC1C24"/>
<path d="M14.716 16.2882C14.7564 16.2467 15.1203 16.5375 15.0394 16.5791C14.9181 16.6206 13.9478 17.0777 13.8669 17.0362C13.786 16.9946 13.786 16.7453 13.9073 16.7037C13.9882 16.6622 14.5542 16.496 14.716 16.2882Z" fill="#EC1C24"/>
<path d="M13.6245 16.9946C13.5032 16.9115 12.8563 17.5763 13.1393 17.6178C13.4223 17.6594 14.1097 17.784 14.2714 17.8671C14.4331 17.784 14.5948 17.6594 14.5544 17.5763C14.6757 17.5763 14.8374 17.7425 14.9992 17.7009C15.1609 17.6178 15.9291 17.0361 15.9695 16.953C15.8078 16.8284 15.4843 16.6206 15.3226 16.6206C15.2013 16.6206 14.1501 17.2439 13.6245 16.9946Z" fill="#EC1C24"/>
<path d="M13.2999 17.7837C13.3807 17.7837 14.1894 18.1161 14.3915 18.0746C14.5937 18.033 14.6341 17.8253 14.7554 17.8253C14.8767 17.8253 14.9171 17.9499 15.1193 17.8253C15.3214 17.7006 15.6449 17.4098 15.7258 17.3267C15.7258 17.4513 15.7258 17.8253 14.998 18.1577C14.2702 18.4901 12.5317 18.9887 12.4913 19.238C12.5721 19.2796 12.7743 19.1965 12.936 19.1134C13.0169 19.1965 13.1786 19.4042 13.1382 19.8197C13.0977 20.1937 12.8147 20.8585 12.8147 21.0247V22.1051C12.8147 22.1882 12.9764 22.6452 12.7338 22.6037C12.5317 22.5621 12.37 22.5621 12.2891 22.5621C12.2082 22.5621 12.0465 22.7283 11.8848 22.6868C11.7231 22.6452 11.4805 22.6037 11.4805 22.5206C11.4805 22.4375 11.6422 22.4375 11.8039 22.3959C11.9656 22.3544 12.0465 22.1882 12.3295 22.0635C12.3295 21.8557 12.2487 20.443 12.2487 20.1521C12.2487 19.8613 12.1678 19.238 12.2891 18.9887C12.3295 18.7394 12.9764 17.7837 13.2999 17.7837Z" fill="#EC1C24"/>
<path d="M14.3516 18.6564C14.3516 18.7395 14.8367 20.0276 15.0793 20.0691C15.2815 20.1107 17.3435 19.6536 17.7478 19.7783C17.8691 19.9445 18.1117 20.2353 18.1117 20.4431C18.1117 20.4431 18.1521 20.8586 18.1117 20.9001C18.1925 20.9001 18.3543 20.8586 18.3947 20.7339C18.4351 20.6093 18.3947 20.0691 18.4351 19.9445C18.4351 19.8614 18.6777 19.3212 18.3543 19.3627C18.0308 19.3627 17.0605 19.3627 16.737 19.2796C16.4136 19.1965 15.7262 19.0719 15.5645 19.155C15.4028 19.2381 15.2006 19.529 15.2006 19.6121C15.1198 19.6121 15.1198 19.5705 15.1602 19.3212C15.2411 19.1134 15.4836 18.4486 15.4432 18.1162C15.2006 18.1162 14.3516 18.6564 14.3516 18.6564Z" fill="#EC1C24"/>
<path d="M13.1807 16.6207C13.2211 16.6623 13.2211 16.7869 13.302 16.8285L11.6443 16.7038C11.6443 16.7038 11.4421 16.5791 11.523 16.5376L13.1807 16.6207Z" fill="#EC1C24"/>
<path d="M11.3609 16.4545H13.0186C13.0186 16.4545 12.8973 16.2467 12.8568 16.1221C12.5738 16.1221 11.3205 16.1636 11.3205 16.1636C11.3205 16.1636 11.1587 16.1636 11.1587 16.496C11.1183 16.5791 11.28 16.7038 11.3609 16.4545Z" fill="#EC1C24"/>
<path d="M9.78348 16.7451H10.1069C10.1069 16.7451 10.2282 16.7035 10.1069 16.5789C9.98564 16.4542 9.78348 16.3711 9.94521 16.1218C9.78348 16.0803 9.5409 16.0387 9.58133 16.5789H9.4196C9.4196 16.5789 9.37917 16.288 8.97486 16.288C8.61098 16.288 7.64062 16.7035 7.64062 16.7035C7.64062 16.7035 8.69184 16.9944 8.97486 16.9944C9.25788 16.9944 9.4196 16.7451 9.4196 16.7451H9.54089C9.54089 16.7451 9.58133 16.9528 9.66219 17.0359V17.3684C9.66219 17.3684 9.50046 17.4099 9.54089 17.6177C9.58133 17.7839 9.70262 17.7839 9.70262 17.7839C9.74305 17.7839 9.78348 17.7423 9.90478 17.7423C9.98564 17.6592 9.94521 17.4515 9.78348 17.3684V17.1191C9.78348 17.1191 9.90478 17.0359 9.90478 16.9528C9.90478 16.8697 9.78348 16.8697 9.78348 16.7451Z" fill="#EC1C24"/>
<path d="M11.7656 18.4072C11.8869 18.3241 11.9273 18.1579 11.9273 18.1579V17.1606C11.9273 16.9113 11.523 16.7451 11.4826 16.7451H11.4421C11.4017 16.7867 11.2804 16.8698 11.1995 16.8698C11.0782 16.8698 11.0378 16.8698 10.9165 16.7451C10.5931 16.7451 10.4313 17.1606 10.3909 17.1606C10.3909 17.2437 10.3505 17.9501 10.3909 18.0748C10.4313 18.1994 10.5122 18.2825 10.5526 18.3241C10.4718 18.5734 10.1483 19.903 10.5931 20.0692V20.277H11.7251V20.0277C12.1295 19.8615 11.8464 18.7396 11.7656 18.4072ZM10.5122 17.1606C10.5526 17.1191 10.6739 16.7867 10.9165 16.7867C11.0378 16.9113 11.1187 16.9113 11.24 16.9113C11.3613 16.9113 11.4421 16.8282 11.523 16.7867C11.6443 16.8282 11.8869 16.9529 11.8869 17.1191V18.1163C11.8869 18.1579 11.8464 18.241 11.7656 18.2825H11.5634V17.867H10.7952V18.2825H10.6335C10.5931 18.241 10.5122 18.1579 10.5122 18.0748C10.4718 17.9917 10.4718 17.493 10.5122 17.1606ZM11.2804 19.903H11.0782C11.0378 19.903 10.9974 19.8615 10.9974 19.8199C10.9974 19.7784 11.0378 19.7368 11.0782 19.7368H11.2804C11.3208 19.7368 11.3613 19.7784 11.3613 19.8199C11.3613 19.8615 11.3208 19.903 11.2804 19.903ZM11.6847 19.9861L11.1591 19.3628L10.6739 19.9861C10.3505 19.8615 10.5526 18.8227 10.6739 18.3656H11.7251C11.806 18.8227 12.0082 19.8199 11.6847 19.9861Z" fill="#EC1C24"/>
<path d="M11.5219 18.8226C11.6432 18.6564 11.4814 18.5317 11.4814 18.5317H10.8345C10.6324 18.5317 10.7132 18.8226 10.7132 18.8226L11.1176 19.1966C11.1176 19.1966 11.4006 19.0304 11.5219 18.8226Z" fill="#EC1C24"/>
<path d="M11.2793 19.2381L11.6836 19.7367C11.6836 19.7367 11.6432 19.155 11.6432 18.9888C11.5219 18.9888 11.2793 19.2381 11.2793 19.2381Z" fill="#EC1C24"/>
<path d="M10.6732 18.9888C10.6732 19.1965 10.6328 19.7367 10.6328 19.7367L11.0371 19.2381C11.0371 19.2381 10.7945 18.9888 10.6732 18.9888Z" fill="#EC1C24"/>
<path d="M11.4412 17.7424H11.5221V17.6593C11.5221 17.6177 11.4817 17.5762 11.4412 17.5762H10.8348C10.7943 17.5762 10.7539 17.6177 10.7539 17.6593V17.7424H10.8348H11.4412Z" fill="#EC1C24"/>
<path d="M10.5516 20.3604H10.4707V20.4435C10.4707 20.485 10.5111 20.5266 10.5516 20.5266H11.7241C11.7645 20.5266 11.8049 20.485 11.8049 20.4435V20.3604H11.7241H10.5516Z" fill="#EC1C24"/>
</svg>
