<svg width="28" height="28" viewBox="0 0 28 28" fill="none" xmlns="http://www.w3.org/2000/svg">
<path d="M10.5 12.8333H8.16667V15.1667H10.5V12.8333ZM15.1667 12.8333H12.8333V15.1667H15.1667V12.8333ZM19.8333 12.8333H17.5V15.1667H19.8333V12.8333ZM22.1667 4.66666H21V2.33333H18.6667V4.66666H9.33333V2.33333H7V4.66666H5.83333C4.53833 4.66666 3.51167 5.71666 3.51167 7L3.5 23.3333C3.5 24.6167 4.53833 25.6667 5.83333 25.6667H22.1667C23.45 25.6667 24.5 24.6167 24.5 23.3333V7C24.5 5.71666 23.45 4.66666 22.1667 4.66666ZM22.1667 23.3333H5.83333V10.5H22.1667V23.3333Z" fill="#6E6E6E"/>
</svg>
