<svg width="18" height="18" viewBox="0 0 18 18" fill="none" xmlns="http://www.w3.org/2000/svg">
<path d="M16.841 8.65008L9.34102 1.15008C9.04102 0.850081 8.62435 0.666748 8.16602 0.666748H2.33268C1.41602 0.666748 0.666016 1.41675 0.666016 2.33341V8.16675C0.666016 8.62508 0.849349 9.04175 1.15768 9.35008L8.65768 16.8501C8.95768 17.1501 9.37435 17.3334 9.83268 17.3334C10.291 17.3334 10.7077 17.1501 11.0077 16.8417L16.841 11.0084C17.1493 10.7084 17.3327 10.2917 17.3327 9.83342C17.3327 9.37508 17.141 8.95008 16.841 8.65008ZM3.58268 4.83342C2.89102 4.83342 2.33268 4.27508 2.33268 3.58341C2.33268 2.89175 2.89102 2.33341 3.58268 2.33341C4.27435 2.33341 4.83268 2.89175 4.83268 3.58341C4.83268 4.27508 4.27435 4.83342 3.58268 4.83342Z" fill="#00AD7C"/>
</svg>
